<svg width="30" height="29" viewBox="0 0 30 29" fill="none" xmlns="http://www.w3.org/2000/svg">
<path d="M15 0C6.71586 0 0 6.02121 0 13.4483C0 16.1855 0.914483 18.7298 2.48069 20.8541C2.27483 23.3084 1.6831 26.7652 0 28.4483C0 28.4483 5.14293 27.7267 8.62604 25.6231C8.62966 25.6247 8.63379 25.6262 8.63741 25.6278C10.0671 24.6962 11.4988 23.7367 11.7952 23.4936C11.9503 23.2759 12.2498 23.2102 12.4831 23.3503C12.6362 23.4424 12.7329 23.6105 12.736 23.789C12.7412 24.1107 12.7334 24.1945 9.84724 26.0757C11.4548 26.6033 13.1886 26.8965 15 26.8965C23.2841 26.8965 30 20.8753 30 13.4483C30 6.02121 23.2841 0 15 0Z" fill="white"/>
<path d="M7.75863 15C8.61563 15 9.31036 14.3053 9.31036 13.4483C9.31036 12.5913 8.61563 11.8965 7.75863 11.8965C6.90164 11.8965 6.20691 12.5913 6.20691 13.4483C6.20691 14.3053 6.90164 15 7.75863 15Z" fill="#063651"/>
<path d="M15 15C15.857 15 16.5517 14.3053 16.5517 13.4483C16.5517 12.5913 15.857 11.8965 15 11.8965C14.143 11.8965 13.4482 12.5913 13.4482 13.4483C13.4482 14.3053 14.143 15 15 15Z" fill="#063651"/>
<path d="M22.2414 15C23.0984 15 23.7931 14.3053 23.7931 13.4483C23.7931 12.5913 23.0984 11.8965 22.2414 11.8965C21.3844 11.8965 20.6897 12.5913 20.6897 13.4483C20.6897 14.3053 21.3844 15 22.2414 15Z" fill="#063651"/>
</svg>
