<svg width="30" height="30" viewBox="0 0 30 30" fill="none" xmlns="http://www.w3.org/2000/svg">
<path d="M28.5 0H6C5.20435 0 4.44129 0.31607 3.87868 0.87868C3.31607 1.44129 3 2.20435 3 3V7.5H0V10.5H3V13.5H0V16.5H3V19.5H0V22.5H3V27C3 27.7956 3.31607 28.5587 3.87868 29.1213C4.44129 29.6839 5.20435 30 6 30H28.5C28.8978 30 29.2794 29.842 29.5607 29.5607C29.842 29.2794 30 28.8978 30 28.5V1.5C30 1.10218 29.842 0.720644 29.5607 0.43934C29.2794 0.158035 28.8978 0 28.5 0ZM16.5 4.4985C18.972 4.4985 21 6.525 21 8.9985C20.9957 10.1908 20.5202 11.333 19.6773 12.1762C18.8343 13.0194 17.6923 13.4953 16.5 13.5C14.0295 13.5 12 11.4705 12 8.9985C12 6.525 14.0295 4.4985 16.5 4.4985ZM25.5 24H7.5V22.875C7.5 19.5465 11.5575 16.125 16.5 16.125C21.4425 16.125 25.5 19.5465 25.5 22.875V24Z" fill="white"/>
</svg>
