<svg width="32" height="38" viewBox="0 0 32 38" fill="none" xmlns="http://www.w3.org/2000/svg">
<g filter="url(#filter0_d_0_1)">
<path d="M18.2751 11.8868L26.498 11.9374C26.7356 11.9385 26.9683 12.0049 27.1699 12.1294C27.3716 12.2539 27.5343 12.4314 27.64 12.6422C27.7456 12.853 27.7899 13.0887 27.768 13.323C27.7462 13.5573 27.6589 13.781 27.516 13.969L15.3822 30C13.5522 28.6444 12.3406 26.625 12.0133 24.3854C11.6861 22.1457 12.2701 19.8691 13.637 18.0555L18.2751 11.8868Z" fill="white"/>
</g>
<g filter="url(#filter1_d_0_1)">
<path d="M13.5193 18.1132L5.28267 18.0622C5.04382 18.0606 4.81011 17.9934 4.6075 17.8681C4.4049 17.7428 4.24135 17.5643 4.13502 17.3524C4.0287 17.1406 3.98377 16.9037 4.00522 16.6681C4.02668 16.4325 4.11368 16.2074 4.25656 16.0178L16.3639 0C18.2083 1.36677 19.4296 3.4028 19.7595 5.66085C20.0893 7.9189 19.5007 10.2143 18.1229 12.0428L13.5193 18.1132Z" fill="white"/>
</g>
<defs>
<filter id="filter0_d_0_1" x="7.92444" y="11.8868" width="23.8491" height="26.1132" filterUnits="userSpaceOnUse" color-interpolation-filters="sRGB">
<feFlood flood-opacity="0" result="BackgroundImageFix"/>
<feColorMatrix in="SourceAlpha" type="matrix" values="0 0 0 0 0 0 0 0 0 0 0 0 0 0 0 0 0 0 127 0" result="hardAlpha"/>
<feOffset dy="4"/>
<feGaussianBlur stdDeviation="2"/>
<feComposite in2="hardAlpha" operator="out"/>
<feColorMatrix type="matrix" values="0 0 0 0 0 0 0 0 0 0 0 0 0 0 0 0 0 0 0.25 0"/>
<feBlend mode="normal" in2="BackgroundImageFix" result="effect1_dropShadow_0_1"/>
<feBlend mode="normal" in="SourceGraphic" in2="effect1_dropShadow_0_1" result="shape"/>
</filter>
<filter id="filter1_d_0_1" x="0" y="0" width="23.8491" height="26.1132" filterUnits="userSpaceOnUse" color-interpolation-filters="sRGB">
<feFlood flood-opacity="0" result="BackgroundImageFix"/>
<feColorMatrix in="SourceAlpha" type="matrix" values="0 0 0 0 0 0 0 0 0 0 0 0 0 0 0 0 0 0 127 0" result="hardAlpha"/>
<feOffset dy="4"/>
<feGaussianBlur stdDeviation="2"/>
<feComposite in2="hardAlpha" operator="out"/>
<feColorMatrix type="matrix" values="0 0 0 0 0 0 0 0 0 0 0 0 0 0 0 0 0 0 0.25 0"/>
<feBlend mode="normal" in2="BackgroundImageFix" result="effect1_dropShadow_0_1"/>
<feBlend mode="normal" in="SourceGraphic" in2="effect1_dropShadow_0_1" result="shape"/>
</filter>
</defs>
</svg>
