<svg width="23" height="30" viewBox="0 0 23 30" fill="none" xmlns="http://www.w3.org/2000/svg">
<path fill-rule="evenodd" clip-rule="evenodd" d="M15.1877 21.667C15.0069 22.3997 14.6841 23.0889 14.2379 23.6945C13.7917 24.3001 13.231 24.81 12.5884 25.1947C11.9458 25.5794 11.2341 25.8313 10.4945 25.9356C9.75493 26.0399 9.00222 25.9947 8.28006 25.8025C7.55791 25.6103 6.88068 25.275 6.28766 24.816C5.69465 24.357 5.19767 23.7835 4.82555 23.1287C4.45343 22.4739 4.21357 21.7509 4.11991 21.0016C4.02624 20.2524 4.08063 19.4917 4.27991 18.7639C4.67431 17.3164 5.61711 16.0845 6.90379 15.3355C8.19047 14.5865 9.71725 14.3808 11.1529 14.763C12.5886 15.1452 13.8174 16.0845 14.5727 17.3771C15.3281 18.6697 15.549 20.2114 15.1877 21.6677V21.667ZM19.1461 22.7395C18.5257 25.038 17.103 27.0315 15.1414 28.3509C13.1797 29.6703 10.8119 30.2263 8.47606 29.9161C6.14026 29.6058 3.99466 28.4503 2.43635 26.6634C0.878039 24.8765 0.012528 22.5791 0 20.1965L0 12.4237C0.813354 12.4252 1.59312 12.7519 2.16917 13.3326C2.74522 13.9134 3.07081 14.7009 3.07491 15.5235V20.1965C3.05191 21.8488 3.62974 23.452 4.69866 24.7017C5.76757 25.9514 7.2531 26.7604 8.87307 26.9752C10.493 27.19 12.1346 26.7956 13.4859 25.8668C14.8372 24.938 15.8041 23.5396 16.203 21.9372L19.2321 10.5952C19.2841 10.3977 19.3741 10.2125 19.4969 10.0502C19.6197 9.88789 19.773 9.75162 19.9478 9.64918C20.1227 9.54674 20.3158 9.48014 20.5162 9.45319C20.7165 9.42623 20.9201 9.43944 21.1154 9.49207C21.3107 9.5447 21.4938 9.63572 21.6543 9.75992C21.8148 9.88412 21.9495 10.0391 22.0508 10.216C22.1521 10.3928 22.218 10.5881 22.2446 10.7907C22.2713 10.9933 22.2582 11.1993 22.2062 11.3968L19.1461 22.7388V22.7395ZM16.117 18.2098L19.4443 5.67338C19.5043 5.47378 19.5239 5.26401 19.5021 5.05657C19.4802 4.84913 19.4173 4.64827 19.317 4.46594C19.2168 4.28362 19.0813 4.12356 18.9186 3.9953C18.756 3.86705 18.5694 3.77322 18.3701 3.71941C18.1708 3.6656 17.9629 3.6529 17.7586 3.68208C17.5544 3.71126 17.3581 3.78172 17.1813 3.88925C17.0045 3.99679 16.851 4.1392 16.7298 4.30801C16.6086 4.47682 16.5223 4.66857 16.4759 4.87185L13.8092 14.8653C14.8976 15.7141 15.7001 16.8822 16.1071 18.2098H16.117V18.2098ZM12.9159 14.2827L16.1572 2.00658C16.2172 1.80698 16.2368 1.59721 16.2149 1.38977C16.1931 1.18234 16.1301 0.98147 16.0299 0.799143C15.9297 0.616817 15.7942 0.456758 15.6315 0.328503C15.4688 0.200248 15.2823 0.10642 15.083 0.0526089C14.8837 -0.00120273 14.6757 -0.0138971 14.4715 0.015282C14.2673 0.0444611 14.0709 0.114917 13.8942 0.222452C13.7174 0.329987 13.5639 0.472401 13.4427 0.641212C13.3215 0.810022 13.2351 1.00178 13.1887 1.20505L9.92065 13.4605C10.4332 13.4762 10.9416 13.5532 11.4359 13.6908C11.9466 13.8304 12.4396 14.029 12.9053 14.2827H12.9152H12.9159ZM8.8764 13.5375L11.3456 4.18726C11.3977 3.98976 11.4107 3.78383 11.3841 3.58122C11.3574 3.37862 11.2916 3.1833 11.1903 3.00643C11.089 2.82956 10.9543 2.6746 10.7938 2.5504C10.6333 2.4262 10.4501 2.33518 10.2549 2.28255C10.0596 2.22992 9.85596 2.21671 9.65563 2.24367C9.4553 2.27062 9.26218 2.33722 9.0873 2.43966C8.91242 2.5421 8.7592 2.67838 8.6364 2.8407C8.51359 3.00303 8.4236 3.18823 8.37156 3.38573L5.21063 15.2682C6.22132 14.3266 7.49402 13.7224 8.85596 13.5375H8.8764V13.5375ZM12.2185 20.8654C12.0893 21.3621 11.8172 21.8088 11.4367 22.1489C11.0563 22.4891 10.5845 22.7074 10.0813 22.7761C9.57805 22.8449 9.06595 22.761 8.60988 22.5352C8.1538 22.3093 7.77427 21.9517 7.51935 21.5075C7.26444 21.0633 7.14563 20.5526 7.17796 20.04C7.21029 19.5275 7.39231 19.0362 7.70096 18.6283C8.00961 18.2205 8.43101 17.9145 8.91176 17.7491C9.39252 17.5837 9.911 17.5664 10.4015 17.6992C11.0562 17.8777 11.6146 18.3107 11.9551 18.9037C12.2956 19.4968 12.3905 20.2019 12.2192 20.8654H12.2185Z" fill="white"/>
</svg>
