<svg width="30" height="30" viewBox="0 0 30 30" fill="none" xmlns="http://www.w3.org/2000/svg">
<path d="M15 0C6.71572 0 0 6.71572 0 15C0 23.2843 6.71572 30 15 30C23.2843 30 30 23.2843 30 15C30 6.71572 23.2843 0 15 0ZM24.5083 8.55469H21.7739C21.4596 7.23557 21.0518 6.02268 20.5676 4.95035C21.4926 5.46457 22.3518 6.11033 23.1207 6.87932C23.6404 7.39904 24.1035 7.9602 24.5083 8.55469ZM26.4844 15C26.4844 16.0024 26.356 16.985 26.1086 17.9297H22.3566C22.4504 16.9821 22.5 16.0027 22.5 15C22.5 13.9973 22.4504 13.0179 22.3566 12.0703H26.1086C26.356 13.015 26.4844 13.9976 26.4844 15ZM15 26.4844C14.6953 26.4844 13.7667 25.8855 12.8412 24.0344C12.4578 23.2676 12.1288 22.3941 11.8596 21.4453H18.1403C17.8712 22.3941 17.5422 23.2676 17.1588 24.0344C16.2333 25.8855 15.3047 26.4844 15 26.4844ZM11.1804 17.9297C11.0722 16.9777 11.0156 15.9944 11.0156 15C11.0156 14.0056 11.0722 13.0223 11.1804 12.0703H18.8196C18.9278 13.0223 18.9844 14.0056 18.9844 15C18.9844 15.9944 18.9278 16.9777 18.8196 17.9297H11.1804ZM3.51562 15C3.51562 13.9976 3.644 13.015 3.89145 12.0703H7.64344C7.54963 13.0179 7.5 13.9973 7.5 15C7.5 16.0027 7.54963 16.9821 7.64344 17.9297H3.89145C3.644 16.985 3.51562 16.0024 3.51562 15ZM15 3.51562C15.3047 3.51562 16.2333 4.11451 17.1588 5.96561C17.5422 6.73242 17.8712 7.60588 18.1404 8.55469H11.8596C12.1288 7.60594 12.4577 6.73242 12.8412 5.96561C13.7667 4.11451 14.6953 3.51562 15 3.51562ZM9.43236 4.95035C8.94814 6.02268 8.54045 7.23551 8.22609 8.55469H5.4917C5.89652 7.9602 6.35959 7.39904 6.87932 6.87932C7.6483 6.11033 8.5074 5.46457 9.43236 4.95035ZM5.4917 21.4453H8.22609C8.54045 22.7644 8.9482 23.9773 9.43236 25.0496C8.5074 24.5354 7.64824 23.8897 6.87932 23.1207C6.35959 22.601 5.89646 22.0398 5.4917 21.4453ZM20.5676 25.0496C21.0519 23.9773 21.4596 22.7645 21.7739 21.4453H24.5083C24.1035 22.0398 23.6404 22.601 23.1207 23.1207C22.3517 23.8897 21.4926 24.5354 20.5676 25.0496Z" fill="#063651"/>
</svg>
