<svg width="38" height="38" viewBox="0 0 38 38" fill="none" xmlns="http://www.w3.org/2000/svg">
<path d="M37.5211 35.2626L26.6183 24.3521C28.7677 21.7744 30.0605 18.4802 30.0605 14.8823C30.0605 6.67404 23.3241 0 15.038 0C6.75192 0 0 6.68183 0 14.89C0 23.0983 6.73635 29.7723 15.0224 29.7723C18.5425 29.7723 21.7821 28.5652 24.3521 26.5482L35.2938 37.4899C35.9324 38.1285 36.8825 38.1285 37.5211 37.4899C38.1596 36.8513 38.1596 35.9012 37.5211 35.2626ZM3.19295 14.89C3.19295 8.44185 8.50415 3.20074 15.0224 3.20074C21.5407 3.20074 26.8519 8.44185 26.8519 14.89C26.8519 21.3383 21.5407 26.5794 15.0224 26.5794C8.50415 26.5794 3.19295 21.3305 3.19295 14.89Z" fill="#7C7C7C"/>
</svg>
